<svg width="1280" height="640" viewBox="0 0 2944 1665" fill="none" xmlns="http://www.w3.org/2000/svg">
<rect width="2944" height="1665" fill="#1C1919"/>
<path d="M491.622 1095.12H442.986V657.392H491.622V609.528H539.486V562.436H690.798V609.528H737.89V657.392H785.754V761.612H730.17V665.884H682.306V618.02H547.206V665.884H500.114V1087.4H547.206V1134.49H682.306V1087.4H730.17V943.804H785.754V1095.12H737.89V1142.98H690.798V1191.62H539.486V1142.98H491.622V1095.12ZM848.286 562.436H905.414V848.076H1135.47V562.436H1191.05V1191.62H1135.47V904.432H905.414V1191.62H848.286V562.436ZM1249.73 562.436H1306.08V1191.62H1249.73V562.436ZM1365.53 562.436H1613.34V609.528H1660.43V657.392H1708.29V856.568H1660.43V904.432H1613.34V952.296H1422.65V1191.62H1365.53V562.436ZM1604.85 895.94V848.076H1652.71V665.884H1604.85V618.02H1422.65V895.94H1604.85ZM1807.88 1095.12H1759.25V943.804H1807.88V895.94H1855.75V856.568H1807.88V808.704H1759.25V657.392H1807.88V609.528H1855.75V562.436H2007.06V609.528H2054.15V657.392H2102.01V808.704H2054.15V856.568H2007.06V895.94H2054.15V943.804H2102.01V1095.12H2054.15V1142.98H2007.06V1191.62H1855.75V1142.98H1807.88V1095.12ZM1998.57 848.076V800.984H2046.43V665.884H1998.57V618.02H1863.47V665.884H1816.37V800.984H1863.47V848.076H1998.57ZM1863.47 1087.4V1134.49H1998.57V1087.4H2046.43V952.296H1998.57V904.432H1863.47V952.296H1816.37V1087.4H1863.47Z" fill="#D3CBBD"/>
<line x1="431" y1="570" x2="2109" y2="570" stroke="#1C1919" stroke-width="20"/>
<line x1="431" y1="615" x2="2109" y2="615" stroke="#1C1919" stroke-width="25"/>
<line x1="431" y1="660" x2="2109" y2="660" stroke="#1C1919" stroke-width="25"/>
<line x1="431" y1="705" x2="2109" y2="705" stroke="#1C1919" stroke-width="25"/>
<line x1="431" y1="760" x2="2109" y2="760" stroke="#1C1919" stroke-width="25"/>
<line x1="431" y1="805" x2="2109" y2="805" stroke="#1C1919" stroke-width="25"/>
<line x1="431" y1="853" x2="2109" y2="853" stroke="#1C1919" stroke-width="25"/>
<line x1="431" y1="900" x2="2109" y2="900" stroke="#1C1919" stroke-width="25"/>
<line x1="431" y1="948" x2="2109" y2="948" stroke="#1C1919" stroke-width="25"/>
<line x1="431" y1="1015" x2="2109" y2="1015" stroke="#1C1919" stroke-width="45"/>
<line x1="431" y1="1090" x2="2109" y2="1090" stroke="#1C1919" stroke-width="35"/>
<line x1="431" y1="1140" x2="2109" y2="1140" stroke="#1C1919" stroke-width="25"/>
<line x1="431" y1="1185" x2="2109" y2="1185" stroke="#1C1919" stroke-width="20"/>
<path d="M2291.12 649C2286.88 651.667 2282.04 653 2276.62 653C2271.21 653 2266.38 651.667 2262.12 649C2257.88 651.667 2253.92 653 2250.25 653C2246.67 653 2243.71 652.667 2241.38 652C2239.04 651.417 2237 650.583 2235.25 649.5C2231.67 647.333 2229.88 644.625 2229.88 641.375C2229.88 639.708 2230.33 638.25 2231.25 637C2233.08 638.417 2235.42 639.125 2238.25 639.125C2245.67 639.125 2250.79 635.958 2253.62 629.625V568.5C2253.62 564.667 2252.83 561.833 2251.25 560C2248.75 556.917 2244.46 553.875 2238.38 550.875C2244.04 548.292 2247.71 546 2249.38 544C2252.21 540.75 2253.62 537.083 2253.62 533V480.25C2250.79 473.833 2245.67 470.625 2238.25 470.625C2235.42 470.625 2233.08 471.333 2231.25 472.75C2230.33 471.5 2229.88 470.083 2229.88 468.5C2229.88 466.833 2230.33 465.292 2231.25 463.875C2232.25 462.458 2233.58 461.25 2235.25 460.25C2239.08 457.917 2243.46 456.75 2248.38 456.75C2253.38 456.75 2257.96 458.125 2262.12 460.875C2266.46 458.125 2271.29 456.75 2276.62 456.75C2281.96 456.75 2286.79 458.125 2291.12 460.875C2300.54 457.292 2310.96 455.5 2322.38 455.5C2333.88 455.5 2343.5 456.542 2351.25 458.625C2359 460.708 2365.67 463.667 2371.25 467.5C2382.5 475.25 2389.5 486.042 2392.25 499.875C2393.33 506.042 2397.29 510.708 2404.12 513.875C2397.62 517.542 2393.38 523.375 2391.38 531.375C2387.29 547.875 2377.08 558.167 2360.75 562.25C2369.17 564.5 2376.04 569.125 2381.38 576.125C2386.88 583.375 2389.62 591.917 2389.62 601.75V614.25C2389.62 626.25 2393.5 634 2401.25 637.5C2403.58 638.583 2406.12 639.125 2408.88 639.125C2411.62 639.125 2413.92 638.417 2415.75 637C2416.67 638.25 2417.12 639.708 2417.12 641.375C2417.12 642.958 2416.71 644.458 2415.88 645.875C2415.04 647.292 2413.92 648.5 2412.5 649.5C2409.5 651.833 2406 653 2402 653C2398 653 2394.08 651.917 2390.25 649.75C2383.25 653.583 2376.71 653.958 2370.62 650.875C2368.29 652.292 2365.83 653 2363.25 653C2360.67 653 2358.17 652.417 2355.75 651.25C2353.42 650.083 2351.33 648.167 2349.5 645.5C2345.58 639.75 2343.62 630.917 2343.62 619V609.75C2343.62 590.5 2338.12 578 2327.12 572.25C2323.46 570.333 2319.17 569.375 2314.25 569.375H2299.62V630.25C2301.88 636.167 2306.17 639.125 2312.5 639.125C2315.33 639.125 2317.67 638.417 2319.5 637C2320.42 638.25 2320.88 640.083 2320.88 642.5C2320.88 644.917 2319.54 647.292 2316.88 649.625C2314.29 651.875 2310.38 653 2305.12 653C2299.88 653 2295.21 651.667 2291.12 649ZM2323.62 472.125C2307.62 472.125 2299.62 478.333 2299.62 490.75V541.875C2299.62 546.208 2301.33 549.125 2304.75 550.625C2308 552.042 2312.79 552.75 2319.12 552.75C2325.54 552.75 2330 552.417 2332.5 551.75C2335.08 551 2337.29 549.75 2339.12 548C2342.88 544.417 2344.75 538.417 2344.75 530V493.5C2344.75 483.083 2340.42 476.417 2331.75 473.5C2329.17 472.583 2326.46 472.125 2323.62 472.125ZM2353.12 480.125C2355.71 485.958 2357 495.292 2357 508.125C2357 530.208 2355.96 543.417 2353.88 547.75C2358.46 546.833 2361.75 540.708 2363.75 529.375L2364.75 524.25C2365.67 518.833 2368.33 515.375 2372.75 513.875C2369.5 512.792 2367.42 511.5 2366.5 510C2365.5 508.25 2364.58 505.292 2363.75 501.125C2363 496.875 2362.21 493.458 2361.38 490.875C2360.54 488.292 2359.67 486.25 2358.75 484.75C2357.17 482.083 2355.29 480.542 2353.12 480.125ZM2265.62 617.375C2269.79 615.792 2272.08 610.333 2272.5 601C2273 591.667 2273.25 578.75 2273.25 562.25C2273.25 545.75 2273.21 534.792 2273.12 529.375C2273.12 523.875 2273.08 519.458 2273 516.125C2272.75 506.292 2271.79 500.375 2270.12 498.375C2268.54 496.292 2267.04 494.917 2265.62 494.25C2265.62 523.25 2265.12 539.75 2264.12 543.75C2262.96 547.083 2260.12 549.458 2255.62 550.875C2260.62 552.625 2263.46 554.75 2264.12 557.25C2265.12 561.25 2265.62 575.875 2265.62 601.125V617.375ZM2351.88 583.125C2355.21 586.875 2356.88 591.458 2356.88 596.875V613.375C2356.88 627.208 2359.62 634.583 2365.12 635.5C2366.62 635.75 2368.08 635.708 2369.5 635.375C2366.5 630.708 2365 625.792 2365 620.625V603.125C2365 596.542 2364.08 591.875 2362.25 589.125C2359.08 584.458 2355.62 582.458 2351.88 583.125Z" fill="#EB5937"/>
<circle cx="2318.5" cy="557.5" r="186" stroke="#EB5937" stroke-width="28"/>
<path d="M2420.71 659.713L2470.9 673.162L2434.16 709.904L2420.71 659.713Z" fill="#EB5937"/>
<path d="M2168.26 672.478L2218.46 659.029L2205.01 709.22L2168.26 672.478Z" fill="#EB5937"/>
<path d="M2167.71 433.463L2207.51 400.063L2216.54 451.235L2167.71 433.463Z" fill="#EB5937"/>
<path d="M2418.78 448.049L2436.56 399.221L2469.96 439.026L2418.78 448.049Z" fill="#EB5937"/>
<circle cx="2436.5" cy="675.5" r="5" fill="white"/>
<circle cx="2436.5" cy="433.5" r="5" fill="white"/>
<circle cx="2202.5" cy="675.5" r="5" fill="white"/>
<circle cx="2202.5" cy="433.5" r="5" fill="white"/>
<path d="M2337.5 350L2361.5 368.5L2375 359.5L2390 373H2417.5L2426.5 395L2453.5 399.5L2461.5 428L2485 434L2492 467L2509.5 478L2507 517L2524 540L2509.5 581L2519.5 603.5L2502 623V648L2482 664L2478.5 680L2461.5 688.5L2457 710H2439L2422.5 738.5L2390 734L2382 757L2349.5 747.5L2320.5 763.5L2302 747.5L2271 757L2252 738.5L2222.5 743.5L2212 719.5H2184.5L2171 688.5L2148 680L2145.5 644L2121 626.5L2125 590.5L2109 558L2125 530L2121 491.5L2145.5 463.5L2148 438.5L2171 428L2179 399.5H2205L2218.5 373L2252 376L2286.5 353L2305.5 365L2337.5 350Z" stroke="#EB5937" stroke-width="17" stroke-linejoin="round"/>
</svg>
