<svg width="2944" height="1665" viewBox="0 0 2944 1665" fill="none" xmlns="http://www.w3.org/2000/svg">
<rect width="2944" height="1665" fill="#1C1919"/>
<path d="M2333.12 655C2328.88 657.667 2324.04 659 2318.62 659C2313.21 659 2308.38 657.667 2304.12 655C2299.88 657.667 2295.92 659 2292.25 659C2288.67 659 2285.71 658.667 2283.38 658C2281.04 657.417 2279 656.583 2277.25 655.5C2273.67 653.333 2271.88 650.625 2271.88 647.375C2271.88 645.708 2272.33 644.25 2273.25 643C2275.08 644.417 2277.42 645.125 2280.25 645.125C2287.67 645.125 2292.79 641.958 2295.62 635.625V574.5C2295.62 570.667 2294.83 567.833 2293.25 566C2290.75 562.917 2286.46 559.875 2280.38 556.875C2286.04 554.292 2289.71 552 2291.38 550C2294.21 546.75 2295.62 543.083 2295.62 539V486.25C2292.79 479.833 2287.67 476.625 2280.25 476.625C2277.42 476.625 2275.08 477.333 2273.25 478.75C2272.33 477.5 2271.88 476.083 2271.88 474.5C2271.88 472.833 2272.33 471.292 2273.25 469.875C2274.25 468.458 2275.58 467.25 2277.25 466.25C2281.08 463.917 2285.46 462.75 2290.38 462.75C2295.38 462.75 2299.96 464.125 2304.12 466.875C2308.46 464.125 2313.29 462.75 2318.62 462.75C2323.96 462.75 2328.79 464.125 2333.12 466.875C2342.54 463.292 2352.96 461.5 2364.38 461.5C2375.88 461.5 2385.5 462.542 2393.25 464.625C2401 466.708 2407.67 469.667 2413.25 473.5C2424.5 481.25 2431.5 492.042 2434.25 505.875C2435.33 512.042 2439.29 516.708 2446.12 519.875C2439.62 523.542 2435.38 529.375 2433.38 537.375C2429.29 553.875 2419.08 564.167 2402.75 568.25C2411.17 570.5 2418.04 575.125 2423.38 582.125C2428.88 589.375 2431.62 597.917 2431.62 607.75V620.25C2431.62 632.25 2435.5 640 2443.25 643.5C2445.58 644.583 2448.12 645.125 2450.88 645.125C2453.62 645.125 2455.92 644.417 2457.75 643C2458.67 644.25 2459.12 645.708 2459.12 647.375C2459.12 648.958 2458.71 650.458 2457.88 651.875C2457.04 653.292 2455.92 654.5 2454.5 655.5C2451.5 657.833 2448 659 2444 659C2440 659 2436.08 657.917 2432.25 655.75C2425.25 659.583 2418.71 659.958 2412.62 656.875C2410.29 658.292 2407.83 659 2405.25 659C2402.67 659 2400.17 658.417 2397.75 657.25C2395.42 656.083 2393.33 654.167 2391.5 651.5C2387.58 645.75 2385.62 636.917 2385.62 625V615.75C2385.62 596.5 2380.12 584 2369.12 578.25C2365.46 576.333 2361.17 575.375 2356.25 575.375H2341.62V636.25C2343.88 642.167 2348.17 645.125 2354.5 645.125C2357.33 645.125 2359.67 644.417 2361.5 643C2362.42 644.25 2362.88 646.083 2362.88 648.5C2362.88 650.917 2361.54 653.292 2358.88 655.625C2356.29 657.875 2352.38 659 2347.12 659C2341.88 659 2337.21 657.667 2333.12 655ZM2365.62 478.125C2349.62 478.125 2341.62 484.333 2341.62 496.75V547.875C2341.62 552.208 2343.33 555.125 2346.75 556.625C2350 558.042 2354.79 558.75 2361.12 558.75C2367.54 558.75 2372 558.417 2374.5 557.75C2377.08 557 2379.29 555.75 2381.12 554C2384.88 550.417 2386.75 544.417 2386.75 536V499.5C2386.75 489.083 2382.42 482.417 2373.75 479.5C2371.17 478.583 2368.46 478.125 2365.62 478.125ZM2395.12 486.125C2397.71 491.958 2399 501.292 2399 514.125C2399 536.208 2397.96 549.417 2395.88 553.75C2400.46 552.833 2403.75 546.708 2405.75 535.375L2406.75 530.25C2407.67 524.833 2410.33 521.375 2414.75 519.875C2411.5 518.792 2409.42 517.5 2408.5 516C2407.5 514.25 2406.58 511.292 2405.75 507.125C2405 502.875 2404.21 499.458 2403.38 496.875C2402.54 494.292 2401.67 492.25 2400.75 490.75C2399.17 488.083 2397.29 486.542 2395.12 486.125ZM2307.62 623.375C2311.79 621.792 2314.08 616.333 2314.5 607C2315 597.667 2315.25 584.75 2315.25 568.25C2315.25 551.75 2315.21 540.792 2315.12 535.375C2315.12 529.875 2315.08 525.458 2315 522.125C2314.75 512.292 2313.79 506.375 2312.12 504.375C2310.54 502.292 2309.04 500.917 2307.62 500.25C2307.62 529.25 2307.12 545.75 2306.12 549.75C2304.96 553.083 2302.12 555.458 2297.62 556.875C2302.62 558.625 2305.46 560.75 2306.12 563.25C2307.12 567.25 2307.62 581.875 2307.62 607.125V623.375ZM2393.88 589.125C2397.21 592.875 2398.88 597.458 2398.88 602.875V619.375C2398.88 633.208 2401.62 640.583 2407.12 641.5C2408.62 641.75 2410.08 641.708 2411.5 641.375C2408.5 636.708 2407 631.792 2407 626.625V609.125C2407 602.542 2406.08 597.875 2404.25 595.125C2401.08 590.458 2397.62 588.458 2393.88 589.125Z" fill="#EB5937"/>
<circle cx="2360.5" cy="563.5" r="186" stroke="#EB5937" stroke-width="28"/>
<path d="M2462.71 665.713L2512.9 679.162L2476.16 715.904L2462.71 665.713Z" fill="#EB5937"/>
<path d="M2210.26 678.478L2260.46 665.029L2247.01 715.22L2210.26 678.478Z" fill="#EB5937"/>
<path d="M2209.71 439.463L2249.51 406.063L2258.54 457.235L2209.71 439.463Z" fill="#EB5937"/>
<path d="M2460.78 454.048L2478.56 405.221L2511.96 445.025L2460.78 454.048Z" fill="#EB5937"/>
<circle cx="2478.5" cy="681.5" r="5" fill="white"/>
<circle cx="2478.5" cy="439.5" r="5" fill="white"/>
<circle cx="2244.5" cy="681.5" r="5" fill="white"/>
<circle cx="2244.5" cy="439.5" r="5" fill="white"/>
<path d="M2379.5 356L2403.5 374.5L2417 365.5L2432 379H2459.5L2468.5 401L2495.5 405.5L2503.5 434L2527 440L2534 473L2551.5 484L2549 523L2566 546L2551.5 587L2561.5 609.5L2544 629V654L2524 670L2520.5 686L2503.5 694.5L2499 716H2481L2464.5 744.5L2432 740L2424 763L2391.5 753.5L2362.5 769.5L2344 753.5L2313 763L2294 744.5L2264.5 749.5L2254 725.5H2226.5L2213 694.5L2190 686L2187.5 650L2163 632.5L2167 596.5L2151 564L2167 536L2163 497.5L2187.5 469.5L2190 444.5L2213 434L2221 405.5H2247L2260.5 379L2294 382L2328.5 359L2347.5 371L2379.5 356Z" stroke="#EB5937" stroke-width="17" stroke-linejoin="round"/>
<rect x="617" y="563" width="60" height="60" fill="#D3CBBD"/>
<rect x="377" y="923" width="60" height="60" fill="#D3CBBD"/>
<rect x="377" y="563" width="60" height="60" fill="#D3CBBD"/>
<rect x="377" y="683" width="60" height="60" fill="#D3CBBD"/>
<rect x="377" y="803" width="60" height="60" fill="#D3CBBD"/>
<rect x="737" y="803" width="60" height="60" fill="#D3CBBD"/>
<rect x="737" y="683" width="60" height="60" fill="#D3CBBD"/>
<rect x="737" y="923" width="60" height="60" fill="#D3CBBD"/>
<rect x="737" y="563" width="60" height="60" fill="#D3CBBD"/>
<rect x="737" y="1043" width="60" height="60" fill="#D3CBBD"/>
<rect x="977" y="803" width="60" height="60" fill="#D3CBBD"/>
<rect x="977" y="683" width="60" height="60" fill="#D3CBBD"/>
<rect x="977" y="923" width="60" height="60" fill="#D3CBBD"/>
<rect x="977" y="563" width="60" height="60" fill="#D3CBBD"/>
<rect x="1097" y="683" width="60" height="60" fill="#D3CBBD"/>
<rect x="1097" y="563" width="60" height="60" fill="#D3CBBD"/>
<rect x="1097" y="923" width="60" height="60" fill="#D3CBBD"/>
<rect x="1097" y="803" width="60" height="60" fill="#D3CBBD"/>
<rect x="977" y="1043" width="60" height="60" fill="#D3CBBD"/>
<rect x="1097" y="1043" width="60" height="60" fill="#D3CBBD"/>
<rect x="1217" y="683" width="60" height="60" fill="#D3CBBD"/>
<rect x="1217" y="563" width="60" height="60" fill="#D3CBBD"/>
<rect x="1217" y="923" width="60" height="60" fill="#D3CBBD"/>
<rect x="1217" y="803" width="60" height="60" fill="#D3CBBD"/>
<rect x="1217" y="1043" width="60" height="60" fill="#D3CBBD"/>
<rect x="377" y="1043" width="60" height="60" fill="#D3CBBD"/>
<rect x="437" y="563" width="60" height="60" fill="#D3CBBD"/>
<rect x="557" y="563" width="60" height="60" fill="#D3CBBD"/>
<rect x="497" y="563" width="60" height="60" fill="#D3CBBD"/>
<rect x="1457" y="563" width="60" height="60" fill="#D3CBBD"/>
<rect x="1457" y="683" width="60" height="60" fill="#D3CBBD"/>
<rect x="1397" y="803" width="60" height="60" fill="#D3CBBD"/>
<rect x="1337" y="803" width="60" height="60" fill="#D3CBBD"/>
<rect x="1277" y="803" width="60" height="60" fill="#D3CBBD"/>
<rect x="1577" y="803" width="60" height="60" fill="#D3CBBD"/>
<rect x="1697" y="803" width="60" height="60" fill="#D3CBBD"/>
<rect x="1637" y="803" width="60" height="60" fill="#D3CBBD"/>
<rect x="1277" y="563" width="60" height="60" fill="#D3CBBD"/>
<rect x="1397" y="563" width="60" height="60" fill="#D3CBBD"/>
<rect x="1337" y="563" width="60" height="60" fill="#D3CBBD"/>
<rect x="1817" y="683" width="60" height="60" fill="#D3CBBD"/>
<rect x="1817" y="563" width="60" height="60" fill="#D3CBBD"/>
<rect x="1817" y="923" width="60" height="60" fill="#D3CBBD"/>
<rect x="1817" y="803" width="60" height="60" fill="#D3CBBD"/>
<rect x="1817" y="1043" width="60" height="60" fill="#D3CBBD"/>
<rect x="2057" y="563" width="60" height="60" fill="#D3CBBD"/>
<rect x="2057" y="683" width="60" height="60" fill="#D3CBBD"/>
<rect x="2057" y="803" width="60" height="60" fill="#D3CBBD"/>
<rect x="1877" y="563" width="60" height="60" fill="#D3CBBD"/>
<rect x="1997" y="563" width="60" height="60" fill="#D3CBBD"/>
<rect x="1937" y="563" width="60" height="60" fill="#D3CBBD"/>
<rect x="2057" y="923" width="60" height="60" fill="#D3CBBD"/>
<rect x="2057" y="1043" width="60" height="60" fill="#D3CBBD"/>
<rect x="1997" y="1043" width="60" height="60" fill="#D3CBBD"/>
<rect x="1937" y="1043" width="60" height="60" fill="#D3CBBD"/>
<rect x="1877" y="1043" width="60" height="60" fill="#D3CBBD"/>
<rect x="1877" y="803" width="60" height="60" fill="#D3CBBD"/>
<rect x="1997" y="803" width="60" height="60" fill="#D3CBBD"/>
<rect x="1937" y="803" width="60" height="60" fill="#D3CBBD"/>
<rect x="797" y="803" width="60" height="60" fill="#D3CBBD"/>
<rect x="857" y="803" width="60" height="60" fill="#D3CBBD"/>
<rect x="917" y="803" width="60" height="60" fill="#D3CBBD"/>
<rect x="617" y="1043" width="60" height="60" fill="#D3CBBD"/>
<rect x="437" y="1043" width="60" height="60" fill="#D3CBBD"/>
<rect x="557" y="1043" width="60" height="60" fill="#D3CBBD"/>
<rect x="497" y="1043" width="60" height="60" fill="#D3CBBD"/>
</svg>
